<?xml version="1.0" encoding="UTF-8"?>
<svg width="240" height="200" viewBox="0 0 240 200" fill="none" xmlns="http://www.w3.org/2000/svg">
    <!-- Background Elements -->
    <path d="M40 180h160M80 160h80" stroke="#C6C8D6" stroke-width="2" stroke-linecap="round"/>
    
    <!-- Main Document Icon -->
    <rect x="70" y="40" width="100" height="120" rx="8" fill="#2E3142" />
    <rect x="80" y="60" width="80" height="8" rx="4" fill="#C6C8D6" opacity="0.6"/>
    <rect x="80" y="80" width="60" height="8" rx="4" fill="#C6C8D6" opacity="0.4"/>
    <rect x="80" y="100" width="70" height="8" rx="4" fill="#C6C8D6" opacity="0.3"/>
    
    <!-- Decorative Elements -->
    <circle cx="50" cy="70" r="15" fill="#B296F5" opacity="0.2"/>
    <circle cx="190" cy="110" r="20" fill="#0EC359" opacity="0.2"/>
    <path d="M160 30c0 5.523-4.477 10-10 10s-10-4.477-10-10 4.477-10 10-10 10 4.477 10 10" fill="#DC5091" opacity="0.2"/>
    
    <!-- Dotted Pattern -->
    <circle cx="40" cy="120" r="2" fill="#C6C8D6" opacity="0.5"/>
    <circle cx="200" cy="60" r="2" fill="#C6C8D6" opacity="0.5"/>
    <circle cx="180" cy="140" r="2" fill="#C6C8D6" opacity="0.5"/>
</svg>
